<svg xmlns="http://www.w3.org/2000/svg" width="640" height="440" viewBox="0 0 640 440" role="img" aria-labelledby="title desc">
  <title id="title">MiniTorch Module 0 Simple dataset manual classifier</title>
  <desc id="desc">A unit-square Simple dataset visualization with a vertical decision boundary at x equals 0.5.</desc>
  <rect width="640" height="440" fill="#f7f7f4"/>
  <text x="40" y="42" font-family="Arial, sans-serif" font-size="22" fill="#1f2933">Simple dataset manual classifier</text>
  <text x="40" y="70" font-family="Arial, sans-serif" font-size="14" fill="#4b5563">Model: sigmoid(5 - 10*x0), boundary at x0 = 0.5</text>
  <g transform="translate(70 96)">
    <rect x="0" y="0" width="250" height="250" fill="#f1b5a9" opacity="0.58"/>
    <rect x="250" y="0" width="250" height="250" fill="#9fd3dc" opacity="0.62"/>
    <line x1="250" y1="0" x2="250" y2="250" stroke="#1f2933" stroke-width="3" stroke-dasharray="8 7"/>
    <rect x="0" y="0" width="500" height="250" fill="none" stroke="#1f2933" stroke-width="2"/>
    <g fill="#d75244" stroke="#1f2933" stroke-width="1.4">
      <path d="M40 40 l8 8 M48 40 l-8 8"/>
      <path d="M82 170 l8 8 M90 170 l-8 8"/>
      <path d="M120 90 l8 8 M128 90 l-8 8"/>
      <path d="M156 212 l8 8 M164 212 l-8 8"/>
      <path d="M205 132 l8 8 M213 132 l-8 8"/>
      <path d="M232 58 l8 8 M240 58 l-8 8"/>
      <path d="M24 226 l8 8 M32 226 l-8 8"/>
      <path d="M178 24 l8 8 M186 24 l-8 8"/>
    </g>
    <g fill="#4aa9b8" stroke="#1f2933" stroke-width="1.4">
      <circle cx="292" cy="34" r="6"/>
      <circle cx="330" cy="178" r="6"/>
      <circle cx="382" cy="88" r="6"/>
      <circle cx="426" cy="222" r="6"/>
      <circle cx="470" cy="128" r="6"/>
      <circle cx="286" cy="212" r="6"/>
      <circle cx="448" cy="42" r="6"/>
      <circle cx="360" cy="236" r="6"/>
    </g>
    <text x="0" y="282" font-family="Arial, sans-serif" font-size="13" fill="#4b5563">0.0</text>
    <text x="240" y="282" font-family="Arial, sans-serif" font-size="13" fill="#4b5563">0.5</text>
    <text x="482" y="282" font-family="Arial, sans-serif" font-size="13" fill="#4b5563">1.0</text>
    <text x="214" y="-12" font-family="Arial, sans-serif" font-size="13" fill="#1f2933">decision boundary</text>
  </g>
  <g transform="translate(430 364)" font-family="Arial, sans-serif" font-size="13" fill="#1f2933">
    <rect x="0" y="-19" width="150" height="44" fill="#ffffff" stroke="#d6d3c9"/>
    <path d="M18 -5 l8 8 M26 -5 l-8 8" stroke="#1f2933" stroke-width="1.4"/>
    <text x="38" y="5">label 1</text>
    <circle cx="21" cy="18" r="6" fill="#4aa9b8" stroke="#1f2933" stroke-width="1.4"/>
    <text x="38" y="23">label 0</text>
  </g>
</svg>
