<svg xmlns="http://www.w3.org/2000/svg" width="760" height="380" viewBox="0 0 760 380" role="img" aria-labelledby="title desc">
  <title id="title">Module 2 tensor training summary</title>
  <desc id="desc">Final correct counts and seconds per epoch for tensor training on Simple, Diag, Split, and Xor datasets.</desc>
  <rect width="760" height="380" fill="#f7f7f4"/>
  <text x="40" y="44" font-family="Arial, sans-serif" font-size="22" fill="#1f2933">Module 2 tensor training summary</text>
  <text x="40" y="72" font-family="Arial, sans-serif" font-size="14" fill="#4b5563">PTS=30, HIDDEN=8, RATE=0.5, EPOCHS=100</text>
  <line x1="88" y1="292" x2="674" y2="292" stroke="#1f2933" stroke-width="1.5"/>
  <line x1="88" y1="112" x2="88" y2="292" stroke="#1f2933" stroke-width="1.5"/>
  <g font-family="Arial, sans-serif" font-size="12" fill="#4b5563">
    <text x="56" y="296">0</text>
    <text x="50" y="236">10</text>
    <text x="50" y="176">20</text>
    <text x="50" y="116">30</text>
  </g>
  <g font-family="Arial, sans-serif" font-size="13" fill="#1f2933">
    <rect x="132" y="130" width="78" height="162" fill="#4aa9b8"/>
    <text x="147" y="314">Simple</text>
    <text x="149" y="120">27/30</text>
    <text x="128" y="334">0.0911s/epoch</text>
    <rect x="270" y="112" width="78" height="180" fill="#d75244"/>
    <text x="293" y="314">Diag</text>
    <text x="289" y="102">30/30</text>
    <text x="266" y="334">0.0906s/epoch</text>
    <rect x="408" y="178" width="78" height="114" fill="#8fbc5a"/>
    <text x="421" y="314">Split</text>
    <text x="427" y="168">19/30</text>
    <text x="404" y="334">0.0911s/epoch</text>
    <rect x="546" y="160" width="78" height="132" fill="#c58b35"/>
    <text x="570" y="314">Xor</text>
    <text x="565" y="150">22/30</text>
    <text x="542" y="334">0.0936s/epoch</text>
  </g>
</svg>
